# xmcd
#
# Track frame offsets: 
#        150
#        17530
#        35805
#        52837
#        68667
#        82217
#        96970
#        114905
#        127912
#        142880
#        154267
#        169550
#        176125
#        179935
#        186672
#        193150
#
# Disc length: 2752 seconds
#
# Revision: 2
# Processed by: cddbd v1.5.2PL0 Copyright (c) Steve Scherf et al.
# Submitted via: ExactAudioCopy v1.3
#
DISCID=e30abe10
DTITLE=Various Artist - CDX 119 October 1995
DYEAR=1995
DGENRE=Country
TTITLE0=Boy Howdy - Field of Dreams
TTITLE1=Ty Herndon feat. Stephanie Bentley - Heart Half Empty
TTITLE2=Johnn Berry - If I Had Any Pride At All
TTITLE3=Ron Wallace - Left Hand of God
TTITLE4=Clint Black - Life Gets Away
TTITLE5=Doug Supernaw - Not Enough Hours In THe Night
TTITLE6=Dwight Yoakam - Nothing
TTITLE7=Karen Banach - Paint You A Picture
TTITLE8=Jesse Dayton - Stitch In Time
TTITLE9=Alan Jackson - Tall, Tall Trees
TTITLE10=Keith Whitle - Wherever You Are Tonight
TTITLE11=Jeff Foxworthy - Games In Georgia
TTITLE12=Jeff Foxworthy - Change The Games
TTITLE13=Jeff Foxworthy - The Clampetts
TTITLE14=Jeff Foxworthy - Maybe I'm Adopted
TTITLE15=Jeff Foxworthy - More Redneck
EXTD=
EXTT0=
EXTT1=
EXTT2=
EXTT3=
EXTT4=
EXTT5=
EXTT6=
EXTT7=
EXTT8=
EXTT9=
EXTT10=
EXTT11=
EXTT12=
EXTT13=
EXTT14=
EXTT15=
PLAYORDER=
